<svg version="1.1" fill="#fff" xmlns="http://www.w3.org/2000/svg" xmlns:xlink="http://www.w3.org/1999/xlink" x="0px" y="0px"
	 viewBox="0 0 512 512" style="enable-background:new 0 0 512 512;" xml:space="preserve">
<g>
	<g>
		<path d="M184.281,328c-13.885,0-25.181,11.296-25.181,25.181c0,6.621,2.556,12.876,7.196,17.614l4.276,4.365l0.061,40.728h27.325
			l0.026-40.723l4.281-4.37c4.641-4.737,7.197-10.992,7.197-17.613C209.461,339.296,198.165,328,184.281,328z"/>
	</g>
</g>
<g>
	<g>
		<path d="M356.703,0c-73.444,0-132.983,57.268-132.983,127.911v111.975H22.315V512h323.93V239.887H291.07V130.476
			c0-33.434,29.385-60.538,65.633-60.538s65.633,27.104,65.633,60.538v50.738l67.349,0.019v-53.321
			C489.685,57.268,430.148,0,356.703,0z M227.977,386.879l-0.038,59.008h-87.261l-0.088-59.002
			c-7.449-9.62-11.49-21.371-11.49-33.704c0-30.427,24.754-55.181,55.181-55.181s55.181,24.754,55.181,55.181
			C239.461,365.512,235.422,377.261,227.977,386.879z"/>
	</g>
</g>
<g>
</g>
<g>
</g>
<g>
</g>
<g>
</g>
<g>
</g>
<g>
</g>
<g>
</g>
<g>
</g>
<g>
</g>
<g>
</g>
<g>
</g>
<g>
</g>
<g>
</g>
<g>
</g>
<g>
</g>
</svg>
